<?xml version="1.0" encoding="utf-8"?>
<!-- Generator: Adobe Illustrator 24.0.2, SVG Export Plug-In . SVG Version: 6.00 Build 0)  -->
<svg version="1.1" id="Laag_1" xmlns="http://www.w3.org/2000/svg" xmlns:xlink="http://www.w3.org/1999/xlink" x="0px" y="0px"
	 viewBox="0 0 425.2 127.56" style="enable-background:new 0 0 425.2 127.56;" xml:space="preserve">
<style type="text/css">
	.st0{fill:#990008;}
	.st1{fill:#E31818;}
</style>
<g>
	<path class="st0" d="M47.86,83.58c1.49,1.49,2.22,3.65,2.22,6.11v8.3H26.44v-8.3c0-2.46,0.73-4.62,2.23-6.11
		c2.56-2.56,6.01-2.39,9.43-2.39C41.52,81.18,45.3,81.02,47.86,83.58 M31.26,86.04c-1.1,0.99-1.6,2.32-1.6,4.02v4.35h17.2v-4.35
		c0-1.69-0.5-3.02-1.59-4.02c-1.36-1.23-3.92-1.26-7.17-1.26C34.84,84.77,32.62,84.8,31.26,86.04"/>
</g>
<polygon class="st0" points="50.09,77.01 26.44,77.01 26.44,63.41 29.66,63.41 29.66,73.78 37.88,73.78 37.88,64.94 41.07,64.94 
	41.07,73.78 46.86,73.78 46.86,63.41 50.09,63.41 "/>
<polygon class="st1" points="89.38,97.99 89.38,63.39 96.14,63.39 96.14,91.97 111.83,91.97 111.83,97.99 "/>
<polygon class="st1" points="115.47,97.99 115.47,63.39 135.98,63.39 135.98,69.42 121.54,69.42 121.54,77.53 129.78,77.53 
	129.78,83.56 121.54,83.56 121.54,91.97 135.98,91.97 135.98,97.99 "/>
<rect x="141.02" y="63.4" class="st1" width="6.75" height="34.6"/>
<polygon class="st1" points="174.84,97.99 161.14,76.76 161.14,97.99 154.38,97.99 154.38,63.39 160.41,63.39 174.11,84.58 
	174.11,63.39 180.87,63.39 180.87,97.99 "/>
<polygon class="st1" points="187.08,97.99 187.08,63.39 207.59,63.39 207.59,69.42 193.16,69.42 193.16,77.53 201.39,77.53 
	201.39,83.56 193.16,83.56 193.16,91.97 207.59,91.97 207.59,97.99 "/>
<g>
	<path class="st0" d="M263.46,94.49c-2.43,2.43-5.39,3.79-9.33,3.79c-3.93,0-6.95-1.36-9.38-3.79c-3.5-3.5-3.4-7.82-3.4-13.8
		c0-5.98-0.1-10.3,3.4-13.8c2.43-2.43,5.44-3.79,9.38-3.79c3.94,0,6.9,1.36,9.33,3.79c3.5,3.5,3.45,7.82,3.45,13.8
		C266.91,86.67,266.96,91,263.46,94.49 M258.46,70.97c-0.97-1.12-2.48-1.84-4.32-1.84c-1.85,0-3.4,0.73-4.37,1.84
		c-1.31,1.46-1.65,3.06-1.65,9.72c0,6.66,0.34,8.26,1.65,9.72c0.97,1.12,2.53,1.85,4.37,1.85c1.85,0,3.35-0.73,4.32-1.85
		c1.31-1.46,1.7-3.06,1.7-9.72C260.16,74.04,259.77,72.43,258.46,70.97"/>
</g>
<polygon class="st0" points="296.46,97.99 296.46,77.83 289.85,90.95 285.28,90.95 278.63,77.83 278.63,97.99 271.87,97.99 
	271.87,63.39 278.53,63.39 287.57,82.1 296.56,63.39 303.22,63.39 303.22,97.99 "/>
<polygon class="st0" points="309.18,97.99 309.18,63.39 329.69,63.39 329.69,69.42 315.26,69.42 315.26,77.53 323.5,77.53 
	323.5,83.56 315.26,83.56 315.26,91.97 329.69,91.97 329.69,97.99 "/>
<g>
	<path class="st0" d="M356.36,94.69c-2.29,2.28-5.54,3.3-9.13,3.3h-12.49v-34.6h12.49c3.59,0,6.85,1.02,9.13,3.3
		c3.89,3.89,3.5,8.65,3.5,13.85C359.86,85.75,360.25,90.8,356.36,94.69 M351.65,71.56c-1.17-1.41-2.72-2.14-5.05-2.14h-5.1v22.55
		h5.1c2.33,0,3.89-0.73,5.05-2.14c1.26-1.56,1.46-4.04,1.46-9.29C353.11,75.3,352.91,73.11,351.65,71.56"/>
</g>
<rect x="365.31" y="63.4" class="st0" width="6.76" height="34.6"/>
<polygon class="st0" points="378.27,97.99 378.27,63.39 398.78,63.39 398.78,69.42 384.35,69.42 384.35,77.53 392.59,77.53 
	392.59,83.56 384.35,83.56 384.35,91.97 398.78,91.97 398.78,97.99 "/>
<polygon class="st1" points="80.87,69.17 77.47,63.4 65.28,78.46 65.28,63.4 58.52,63.4 58.52,97.99 65.28,97.99 65.28,87.6 
	69.75,82.25 78.64,97.99 86.51,97.99 74.22,77.15 "/>
<polygon class="st0" points="234.99,69.16 231.59,63.4 231.58,63.4 219.39,78.46 219.39,63.4 212.64,63.4 212.64,97.99 
	219.39,97.99 219.39,87.6 223.86,82.25 232.75,97.99 240.62,97.99 228.33,77.15 "/>
<g>
	<path class="st1" d="M80.35,55.38c-0.21-6.8-3.02-13.22-7.97-18.15c-5.14-5.12-11.88-7.94-18.99-7.95H53.3l-0.01,0
		c-14.3,0.02-26.38,11.87-26.85,26.1l-0.02,0.68l3.23,0l0.02-0.63c0.19-5.28,2.2-10.19,5.39-14.09l0.08-0.1l6.23,5.86l-0.06,0.08
		c-1.96,2.5-3.12,5.36-3.32,8.18l-0.05,0.7h3.24l0.05-0.6c0.17-2.02,1.04-4.14,2.44-6.01l0.08-0.1l7.14,6.72h5.02l7.09-6.73
		l0.08,0.11c1.41,1.87,2.29,3.99,2.47,6.03l0.05,0.6l3.24-0.02l-0.05-0.7c-0.21-2.83-1.39-5.69-3.35-8.18l-0.07-0.09l6.24-5.93
		l0.08,0.1l0.5-0.42v0l0,0l-0.51,0.42c3.36,4.05,5.26,8.99,5.44,14.17l0.02,0.64l3.24,0L80.35,55.38z M51.7,52.17l-5.48-5.21
		l-0.1-0.09l0.11-0.09c1.65-1.33,3.5-2.22,5.34-2.56l0.14-0.03V52.17z M51.7,40.92l-0.12,0.02c-2.67,0.36-5.4,1.62-7.75,3.62
		l-0.08,0.06l-6.22-5.9l0.1-0.09c3.8-3.42,8.66-5.65,13.94-6.05l0.13-0.01V40.92z M62.93,44.58l-0.07-0.06
		c-2.37-1.98-5.1-3.23-7.83-3.59l-0.09-0.01v-8.35l0.12,0.01c5.19,0.38,10.07,2.46,14.02,5.99l0.09,0.08L62.93,44.58z M54.94,44.19
		l0.15,0.02c1.86,0.34,3.71,1.21,5.38,2.53l0.11,0.08l-5.42,5.15l-0.2,0.19V44.19z"/>
</g>
</svg>
