<?xml version="1.0" encoding="UTF-8"?>
<svg width="195px" height="150px" viewBox="0 0 195 150" version="1.1" xmlns="http://www.w3.org/2000/svg" xmlns:xlink="http://www.w3.org/1999/xlink">
    <!-- Generator: Sketch 59.1 (86144) - https://sketch.com -->
    <title>logo</title>
    <desc>Created with Sketch.</desc>
    <defs>
        <polygon id="path-1" points="0.02652 0.0746839827 38.471745 0.0746839827 38.471745 18.5893903 0.02652 18.5893903"></polygon>
    </defs>
    <g id="logo" stroke="none" stroke-width="1" fill="none" fill-rule="evenodd">
        <g id="Group-22-Copy" fill="none">
            <polygon id="Fill-1" points="0 150 195 150 195 0 0 0"></polygon>
        </g>
        <g id="Group-22-Copy-2" transform="translate(33.000000, 36.000000)">
            <polygon id="Fill-1" fill="#E41C25" points="44.0393258 48 44.0393258 23 48.8526039 23 48.8526039 43.6464067 60.0393258 43.6464067 60.0393258 48"></polygon>
            <polygon id="Fill-2" fill="#E41C25" points="62.0393258 48 62.0393258 23 76.0393258 23 76.0393258 27.3526034 66.189102 27.3526034 66.189102 33.2177787 71.8858086 33.2177787 71.8858086 37.571372 66.189102 37.571372 66.189102 43.6464067 76.0393258 43.6464067 76.0393258 48"></polygon>
            <polygon id="Fill-3" fill="#E41C25" points="81.0393258 48 85.0393258 48 85.0393258 23 81.0393258 23"></polygon>
            <polygon id="Fill-4" fill="#E41C25" points="103.94393 48 94.6301174 32.6565037 94.6301174 48 90.0393258 48 90.0393258 23 94.1347216 23 103.448534 38.3088497 103.448534 23 108.039326 23 108.039326 48"></polygon>
            <polygon id="Fill-5" fill="#E41C25" points="113.039326 23 113.039326 48 127.039326 48 127.039326 43.6464067 117.18789 43.6464067 117.18789 37.571372 122.884216 37.571372 122.884216 33.2187686 117.18789 33.2187686 117.18789 27.3516135 127.039326 27.3516135 127.039326 23"></polygon>
            <path d="M34.6101467,75.4146752 C32.8991446,77.0719347 30.8122179,78 28.0379148,78 C25.2665873,78 23.1459365,77.0719347 21.4349344,75.4146752 C18.9691076,73.0272607 19.0395315,70.0787799 19.0395315,66.0004804 C19.0395315,61.9221809 18.9691076,58.9737 21.4349344,56.5862856 C23.1459365,54.9290261 25.2665873,54 28.0379148,54 C30.8122179,54 32.8991446,54.9290261 34.6101467,56.5862856 C37.0739897,58.9737 37.0392998,61.9221809 37.0392998,66.0004804 C37.0392998,70.0787799 37.0739897,73.0272607 34.6101467,75.4146752 M31.0849864,59.3704816 C30.4015774,58.6076618 29.3402602,58.1119251 28.0379148,58.1119251 C26.738545,58.1119251 25.6444956,58.6076618 24.9600947,59.3704816 C24.0366495,60.3638765 23.7966133,61.4581482 23.7966133,66.0004804 C23.7966133,70.5428125 24.0366495,71.6351627 24.9600947,72.6285577 C25.6444956,73.3923382 26.738545,73.8899964 28.0379148,73.8899964 C29.3402602,73.8899964 30.4015774,73.3923382 31.0849864,72.6285577 C32.0104153,71.6351627 32.2831838,70.5428125 32.2831838,66.0004804 C32.2831838,61.4581482 32.0104153,60.3638765 31.0849864,59.3704816" id="Fill-6" fill="#C3094A"></path>
            <polygon id="Fill-8" fill="#C3094A" points="56.5781468 54 50.5553665 66.978306 44.5005049 54 40.0393258 54 40.0393258 78 44.5656109 78 44.5656109 64.0106638 49.0258463 73.1109121 52.0867737 73.1109121 56.5139844 64.0106638 56.5139844 78 61.0393258 78 61.0393258 54"></polygon>
            <polygon id="Fill-9" fill="#C3094A" points="66.0393258 54 66.0393258 78 80.0393258 78 80.0393258 73.8200985 70.1884709 73.8200985 70.1884709 67.9893362 75.8123122 67.9893362 75.8123122 63.8094347 70.1884709 63.8094347 70.1884709 58.1808783 80.0393258 58.1808783 80.0393258 54"></polygon>
            <path d="M98.5261107,75.7082384 C96.8900833,77.2907848 94.5580886,78 91.9830097,78 L83.0393258,78 L83.0393258,54 L91.9830097,54 C94.5580886,54 96.8900833,54.7082384 98.5261107,56.2937154 C101.30998,58.9879518 101.031593,62.2937154 101.031593,65.8993813 C101.031593,69.5050472 101.30998,73.0100944 98.5261107,75.7082384 M95.1501651,59.6639531 C94.3150043,58.6870726 93.2014567,58.1800716 91.5301266,58.1800716 L87.8768027,58.1800716 L87.8768027,73.8199284 L91.5301266,73.8199284 C93.2014567,73.8199284 94.3150043,73.3148811 95.1501651,72.3370238 C96.0549225,71.2585477 96.194116,69.539238 96.194116,65.8993813 C96.194116,62.2595246 96.0549225,60.7424292 95.1501651,59.6639531" id="Fill-10" fill="#C3094A"></path>
            <polygon id="Fill-12" fill="#C3094A" points="104.039326 78 108.039326 78 108.039326 54 104.039326 54"></polygon>
            <polygon id="Fill-13" fill="#C3094A" points="113.039326 54 113.039326 78 127.039326 78 127.039326 73.8200985 117.188471 73.8200985 117.188471 67.9893362 122.811351 67.9893362 122.811351 63.8094347 117.188471 63.8094347 117.188471 58.1808783 127.039326 58.1808783 127.039326 54"></polygon>
            <path d="M15.4391752,38.5682435 C16.5134917,39.5470953 17.0393258,40.9589007 17.0393258,42.5670143 L17.0393258,48 L0.0393258427,48 L0.0393258427,42.5670143 C0.0393258427,40.9589007 0.565159948,39.5470953 1.63849174,38.5682435 C3.4779264,36.8946939 5.96037543,37.0013636 8.41919146,37.0013636 C10.8789922,37.0013636 13.6007253,36.8946939 15.4391752,38.5682435 M3.50155939,40.1754607 C2.71379294,40.8280285 2.35535921,41.6975214 2.35535921,42.8072453 L2.35535921,45.6541621 L14.7223078,45.6541621 L14.7223078,42.8072453 C14.7223078,41.6975214 14.3648587,40.8280285 13.5770923,40.1754607 C12.5982925,39.3714039 10.7598425,39.3498907 8.41919146,39.3498907 C6.08050981,39.3498907 4.47838979,39.3714039 3.50155939,40.1754607" id="Fill-14" fill="#C3094A"></path>
            <polygon id="Fill-16" fill="#C3094A" points="14.7231583 23 14.7231583 30.6243706 10.5576019 30.6243706 10.5576019 24.121853 8.26506876 24.121853 8.26506876 30.6243706 2.3545086 30.6243706 2.3545086 23 0.0393258427 23 0.0393258427 33 17.0393258 33 17.0393258 23"></polygon>
            <polygon id="Fill-17" fill="#E41C25" points="33.6934619 32.9366462 38.2151457 27.1645219 35.9050136 23 35.9040836 23 27.62425 33.8839834 27.62425 23 23.0393258 23 23.0393258 48 27.62425 48 27.62425 40.4856464 30.6588559 36.6230449 36.6945877 48 42.0393258 48"></polygon>
            <polygon id="Fill-18" fill="#C3094A" points="0.0393258427 54 0.0393258427 78 4.62441188 78 4.62441188 70.7873977 7.65882871 67.0790084 13.6961136 78 19.0393258 78 10.6942016 63.5396263 15.212366 58.0034192 12.9016585 54.0039077 4.62441188 64.450116 4.62441188 54"></polygon>
            <g id="Group-21" transform="translate(0.039326, 0.000000)">
                <mask id="mask-2" fill="white">
                    <use xlink:href="#path-1"></use>
                </mask>
                <g id="Clip-20"></g>
                <path d="M38.452245,18.1173924 C38.30502,13.4182236 36.301395,8.97917381 32.77677,5.56924957 C29.11467,2.02879286 24.31182,0.083102381 19.24377,0.0745893939 L19.18137,0.0745893939 L19.174545,0.0755352814 C8.98677,0.0878318182 0.376545,8.28394654 0.043095,18.1173924 L0.02652,18.5846608 L2.330445,18.5865526 L2.34702,18.1504985 C2.482545,14.4984271 3.911895,11.1102582 6.187545,8.41353312 L6.246045,8.34637511 L10.68327,12.3957193 L10.639395,12.4505807 C9.243195,14.1768253 8.414445,16.1584595 8.27502,18.10415 L8.242845,18.5865526 L10.54677,18.5865526 L10.58187,18.1722539 C10.70082,16.7713946 11.32482,15.3109444 12.318345,14.0131868 L12.372945,13.9412994 L17.45757,18.5865526 L21.03582,18.5865526 L26.08632,13.9337323 L26.14677,14.0103491 C27.150045,15.3033773 27.779895,16.767611 27.90957,18.1779292 L27.945645,18.5893903 L30.24957,18.5799314 L30.213495,18.0984747 C30.067245,16.1442712 29.22387,14.1654747 27.824745,12.4430136 L27.77307,12.3824768 L32.22102,8.28394654 L32.27952,8.35205043 L32.63832,8.0607171 L32.63832,8.06166299 L32.639295,8.06355476 L32.27952,8.35205043 C34.669245,11.1499855 36.026445,14.5627474 36.15222,18.1486067 L36.16392,18.5865526 L38.471745,18.5846608 L38.452245,18.1173924 Z M18.04062,15.9002323 L14.13477,12.3011305 L14.063595,12.2349184 L14.14062,12.1753275 C15.31842,11.254979 16.635645,10.6439357 17.94312,10.4084097 L18.04062,10.3913838 L18.04062,15.9002323 Z M18.04257,8.12503745 L17.957745,8.13733398 C16.052595,8.38421061 14.112345,9.25915649 12.435345,10.6392063 L12.378795,10.6846089 L7.94937,6.6068881 L8.01957,6.54540541 C10.72617,4.18257857 14.18937,2.63699848 17.94702,2.36363701 L18.04257,2.35512403 L18.04257,8.12503745 Z M26.04147,10.6543405 L25.991745,10.6127214 C24.30597,9.24780584 22.356945,8.38326472 20.412795,8.13355043 L20.348445,8.12503745 L20.348445,2.35228636 L20.436195,2.35890758 C24.131445,2.6209184 27.608295,4.05866732 30.42507,6.49527338 L30.492345,6.55202662 L26.04147,10.6543405 Z M20.348445,10.3885461 L20.45082,10.4074639 C21.77487,10.6373145 23.094045,11.2417366 24.279645,12.1507344 L24.355695,12.2093794 L20.48982,15.7706457 L20.348445,15.9002323 L20.348445,10.3885461 Z" id="Fill-19" fill="#E41C25" mask="url(#mask-2)"></path>
            </g>
        </g>
    </g>
</svg>